<?xml version="1.0" encoding="UTF-8" standalone="no"?>
<svg xmlns="http://www.w3.org/2000/svg" width="512" height="512" viewBox="0 0 512 512" fill="none">
  <!-- Background -->
  <rect width="512" height="512" rx="100" fill="#1A73E8"/>
  
  <!-- First chat bubble -->
  <path d="M144 189C144 164.147 164.147 144 189 144H274C298.853 144 319 164.147 319 189V234C319 258.853 298.853 279 274 279H226L188 317V279H189C164.147 279 144 258.853 144 234V189Z" fill="white"/>
  
  <!-- Second chat bubble -->
  <path d="M193 233C193 208.147 213.147 188 238 188H323C347.853 188 368 208.147 368 233V278C368 302.853 347.853 323 323 323H275L237 361V323H238C213.147 323 193 302.853 193 278V233Z" fill="#D1E3FF"/>
  
  <!-- Connection lines -->
  <circle cx="189" cy="211" r="14" fill="#1A73E8"/>
  <circle cx="232" cy="211" r="14" fill="#1A73E8"/>
  <circle cx="275" cy="211" r="14" fill="#1A73E8"/>
  
  <circle cx="238" cy="255" r="14" fill="#1A73E8"/>
  <circle cx="281" cy="255" r="14" fill="#1A73E8"/>
  <circle cx="324" cy="255" r="14" fill="#1A73E8"/>
</svg>